<svg width="1em" height="1em" viewBox="0 0 24 24" fill="none" xmlns="http://www.w3.org/2000/svg">
<path fill-rule="evenodd" clip-rule="evenodd" d="M5.17452 2.52782C5.6372 2.22626 6.25675 2.35689 6.55831 2.81957C6.85987 3.28226 6.72925 3.90181 6.26656 4.20337C5.11102 4.95649 4.11519 5.9299 3.33596 7.06799C3.02395 7.5237 2.40159 7.64018 1.94589 7.32817C1.49018 7.01615 1.3737 6.3938 1.68571 5.93809C2.61337 4.58322 3.79888 3.4244 5.17452 2.52782ZM17.4412 2.81957C17.7428 2.35689 18.3623 2.22626 18.825 2.52782C20.2007 3.4244 21.3862 4.58322 22.3138 5.93809C22.6258 6.3938 22.5094 7.01615 22.0537 7.32817C21.598 7.64018 20.9756 7.5237 20.6636 7.06799C19.8844 5.9299 18.8885 4.95649 17.733 4.20337C17.2703 3.90181 17.1397 3.28226 17.4412 2.81957ZM11.9998 6.49997C8.40992 6.49997 5.49977 9.41012 5.49977 13C5.49977 16.5898 8.40992 19.5 11.9998 19.5C15.5896 19.5 18.4998 16.5898 18.4998 13C18.4998 9.41012 15.5896 6.49997 11.9998 6.49997ZM3.49977 13C3.49977 8.30555 7.30535 4.49997 11.9998 4.49997C16.6942 4.49997 20.4998 8.30555 20.4998 13C20.4998 14.9872 19.8178 16.8151 18.6752 18.2625C18.6859 18.2724 18.6965 18.2825 18.7069 18.2929L20.2069 19.7929C20.5974 20.1834 20.5974 20.8166 20.2069 21.2071C19.8164 21.5976 19.1832 21.5976 18.7927 21.2071L17.2927 19.7071C17.2823 19.6967 17.2722 19.6861 17.2623 19.6754C15.8149 20.818 13.987 21.5 11.9998 21.5C10.0126 21.5 8.18462 20.818 6.73721 19.6754C6.72738 19.6861 6.71727 19.6967 6.70688 19.7071L5.20688 21.2071C4.81636 21.5976 4.18319 21.5976 3.79267 21.2071C3.40214 20.8166 3.40214 20.1834 3.79267 19.7929L5.29267 18.2929C5.30305 18.2825 5.31362 18.2724 5.32434 18.2625C4.18171 16.8151 3.49977 14.9872 3.49977 13ZM11.9998 8.99997C12.5521 8.99997 12.9998 9.44769 12.9998 9.99997V12H14.9998C15.5521 12 15.9998 12.4477 15.9998 13C15.9998 13.5523 15.5521 14 14.9998 14H12.9998V16C12.9998 16.5523 12.5521 17 11.9998 17C11.4475 17 10.9998 16.5523 10.9998 16V14H8.99977C8.44749 14 7.99977 13.5523 7.99977 13C7.99977 12.4477 8.44749 12 8.99977 12H10.9998V9.99997C10.9998 9.44769 11.4475 8.99997 11.9998 8.99997Z" fill="currentColor"/>
</svg>
