<svg width="1em" height="1em" viewBox="0 0 24 24" fill="none" xmlns="http://www.w3.org/2000/svg">
<path fill-rule="evenodd" clip-rule="evenodd" d="M9.17098 14.8284C9.38663 15.044 9.6042 15.2533 9.82313 15.4559C10.2284 15.8311 10.2529 16.4638 9.87769 16.8691C9.50252 17.2744 8.86983 17.2988 8.46453 16.9237C8.22669 16.7035 7.99058 16.4764 7.75677 16.2426C6.97309 15.4589 6.26197 14.6465 5.63331 13.8262C5.35179 14.3515 5.11825 14.8626 4.93507 15.3511C4.1932 17.3294 4.39916 18.5425 4.92768 19.071C5.45619 19.5995 6.6693 19.8055 8.64762 19.0636C10.5331 18.3566 12.7565 16.8991 14.8272 14.8284C15.7542 13.9013 16.5583 12.9437 17.2272 11.9995C16.5585 11.0556 15.7546 10.0983 14.8278 9.17154C12.7571 7.10083 10.5338 5.64334 8.64828 4.93629C6.66997 4.19442 5.45686 4.40038 4.92834 4.9289C4.39982 5.45741 4.19387 6.67052 4.93574 8.64884C5.11879 9.13699 5.35215 9.64779 5.63343 10.1727C6.26189 9.35278 6.97275 8.54066 7.7561 7.7573C8.00838 7.50503 8.26333 7.26057 8.52025 7.02421C8.92669 6.65028 9.55931 6.67665 9.93323 7.08309C10.3072 7.48954 10.2808 8.12215 9.87435 8.49608C9.63791 8.71361 9.403 8.93884 9.17032 9.17152C8.24358 10.0983 7.43967 11.0556 6.77089 11.9995C7.4398 12.9437 8.24394 13.9013 9.17098 14.8284ZM3.06308 9.35109C3.38368 10.206 3.82582 11.0981 4.37636 11.9994C3.82551 12.9011 3.38314 13.7936 3.06241 14.6488C2.26875 16.7653 2.08936 19.0611 3.51346 20.4852C4.93757 21.9093 7.23343 21.7299 9.34987 20.9363C11.5592 20.1078 14.0163 18.4676 16.2414 16.2426C17.0251 15.4589 17.7362 14.6464 18.3648 13.8262C18.6464 14.3515 18.8799 14.8626 19.0631 15.3511C19.8049 17.3294 19.599 18.5425 19.0705 19.071C18.5773 19.5642 17.4884 19.7838 15.6937 19.1853C15.1698 19.0106 14.6034 19.2936 14.4287 19.8175C14.254 20.3415 14.537 20.9078 15.0609 21.0825C17.0349 21.7409 19.1465 21.8234 20.4847 20.4852C21.9088 19.0611 21.7294 16.7653 20.9357 14.6488C20.615 13.7936 20.1726 12.9011 19.6218 11.9994C20.1723 11.0981 20.6145 10.206 20.9351 9.35107C21.7287 7.23463 21.9081 4.93877 20.484 3.51466C19.1556 2.18619 17.0644 2.25842 15.1063 2.90211C14.5817 3.07459 14.2962 3.63974 14.4686 4.1644C14.6411 4.68906 15.2063 4.97456 15.7309 4.80208C17.5052 4.2188 18.5805 4.43959 19.0698 4.92888C19.5983 5.45739 19.8043 6.6705 19.0624 8.64882C18.8794 9.13698 18.646 9.64779 18.3647 10.1727C17.7362 9.35279 17.0254 8.54067 16.242 7.75732C14.017 5.53226 11.5598 3.89212 9.35053 3.06363C7.23409 2.26997 4.93823 2.09058 3.51413 3.51468C2.09002 4.93879 2.26941 7.23465 3.06308 9.35109ZM11.9999 13.5C12.8283 13.5 13.4999 12.8284 13.4999 12C13.4999 11.1716 12.8283 10.5 11.9999 10.5C11.1714 10.5 10.4999 11.1716 10.4999 12C10.4999 12.8284 11.1714 13.5 11.9999 13.5Z" fill="currentColor"/>
</svg>
