<svg width="1em" height="1em" viewBox="0 0 24 24" fill="none" xmlns="http://www.w3.org/2000/svg">
<path fill-rule="evenodd" clip-rule="evenodd" d="M3.17216 7.48188C1.46677 5.54394 2.84283 2.5 5.4243 2.5H18.576C21.1575 2.5 22.5336 5.54393 20.8282 7.48188L15.0002 14.1046V19.5C15.0002 20.1295 14.7038 20.7223 14.2002 21.1L12.2002 22.6C10.8817 23.5889 9.00017 22.6481 9.00017 21V14.1046L3.17216 7.48188ZM5.4243 4.5C4.56381 4.5 4.10513 5.51465 4.67359 6.16063L10.5016 12.7834C10.8229 13.1485 11.0002 13.6182 11.0002 14.1046V21L13.0002 19.5V14.1046C13.0002 13.6182 13.1774 13.1485 13.4987 12.7834L19.3268 6.16063C19.8952 5.51465 19.4365 4.5 18.576 4.5H5.4243Z" fill="currentColor"/>
</svg>
