<svg width="1em" height="1em" viewBox="0 0 24 24" fill="none" xmlns="http://www.w3.org/2000/svg">
<path fill-rule="evenodd" clip-rule="evenodd" d="M5.39317 5.93251C4.9831 5.5225 4.31831 5.5225 3.90824 5.93251L0.757806 9.08251C0.560848 9.27944 0.450195 9.54656 0.450195 9.82508C0.450195 10.1036 0.560848 10.3707 0.757806 10.5676L3.90824 13.7176C4.31831 14.1277 4.9831 14.1277 5.39317 13.7176L8.32734 10.7839L11.0438 13.5L8.11108 16.4324C7.91412 16.6293 7.80347 16.8964 7.80347 17.1749C7.80347 17.4535 7.91412 17.7206 8.11108 17.9175L11.2615 21.0675C11.6716 21.4775 12.3364 21.4775 12.7464 21.0675L15.8969 17.9175C16.0938 17.7206 16.2045 17.4535 16.2045 17.1749C16.2045 16.8964 16.0938 16.6293 15.8969 16.4324L12.9641 13.5L15.6769 10.7876L18.6073 13.7176C19.0174 14.1277 19.6822 14.1277 20.0923 13.7176L23.2427 10.5676C23.4397 10.3707 23.5503 10.1036 23.5503 9.82508C23.5503 9.54656 23.4397 9.27944 23.2427 9.08251L20.0923 5.93251C19.6822 5.5225 19.0174 5.5225 18.6073 5.93251L15.6769 8.86256L12.7464 5.93251C12.3364 5.5225 11.6716 5.5225 11.2615 5.93251L8.32734 8.86628L5.39317 5.93251ZM4.65071 11.4902L2.9854 9.82508L4.65071 8.16L6.31601 9.82508L4.65071 11.4902ZM12.004 11.4902L10.3387 9.82508L12.004 8.16L13.6693 9.82508L12.004 11.4902ZM12.004 18.84L10.3387 17.1749L12.004 15.5099L13.6693 17.1749L12.004 18.84ZM17.6845 9.82508L19.3498 11.4902L21.0151 9.82508L19.3498 8.16L17.6845 9.82508Z" fill="currentColor"/>
</svg>
