<svg width="1em" height="1em" viewBox="0 0 24 24" fill="none" xmlns="http://www.w3.org/2000/svg">
<path fill-rule="evenodd" clip-rule="evenodd" d="M8.01844 8.03335C8.01026 5.82423 9.79449 4.02676 12.0036 4.01858C14.2127 4.01041 16.0102 5.79464 16.0184 8.00376C16.0261 10.1016 14.4176 11.8282 12.3638 12.0038C12.2439 12.0014 12.1226 12.0001 11.9999 12.0001C11.8874 12.0001 11.776 12.0012 11.6658 12.0032C9.62819 11.8253 8.02615 10.1186 8.01844 8.03335ZM8.06253 12.5299C6.81504 11.4351 6.02507 9.83095 6.01845 8.04075C6.00619 4.72707 8.68253 2.03085 11.9962 2.0186C15.3099 2.00634 18.0061 4.68267 18.0184 7.99636C18.0251 9.80706 17.229 11.4334 15.9648 12.5382C17.0844 12.8802 18.015 13.3692 18.7845 13.9578C20.3199 15.1322 21.1246 16.6352 21.5426 17.9318C21.9044 19.0543 21.5866 20.1155 20.8984 20.8612C20.2304 21.5849 19.2345 22.0001 18.1885 22.0001L11.9999 22.0001L5.81135 22.0001C4.76544 22.0001 3.76945 21.585 3.10148 20.8612C2.41334 20.1155 2.09546 19.0543 2.45731 17.9318C2.87529 16.6352 3.68 15.1322 5.21536 13.9578C5.99115 13.3644 6.9307 12.8722 8.06253 12.5299ZM11.6105 14.0049C9.12539 14.0673 7.50277 14.7261 6.43049 15.5463C5.2976 16.4129 4.68845 17.5292 4.36085 18.5454C4.2382 18.9259 4.3319 19.2454 4.57124 19.5048C4.83076 19.786 5.27816 20.0001 5.81135 20.0001L11.9999 20.0001L18.1885 20.0001C18.7217 20.0001 19.1691 19.786 19.4286 19.5048C19.668 19.2454 19.7617 18.9259 19.639 18.5454C19.3114 17.5292 18.7023 16.4129 17.5694 15.5463C16.5009 14.729 14.8858 14.0719 12.4155 14.0056C12.2915 14.0137 12.1665 14.0181 12.0406 14.0185C11.896 14.0191 11.7526 14.0145 11.6105 14.0049Z" fill="currentColor"/>
</svg>
