<svg width="1em" height="1em" viewBox="0 0 24 24" fill="none" xmlns="http://www.w3.org/2000/svg">
<path fill-rule="evenodd" clip-rule="evenodd" d="M21.9998 10.0001C22.7143 11.2377 22.7143 12.7625 21.9998 14.0001L18.7318 19.6604C18.0173 20.898 16.6968 21.6604 15.2677 21.6604H8.73182C7.30275 21.6604 5.98225 20.898 5.26772 19.6604L1.99977 14.0001C1.28523 12.7625 1.28523 11.2377 1.99977 10.0001L5.26772 4.33984C5.98225 3.10224 7.30275 2.33984 8.73182 2.33984H15.2677C16.6968 2.33984 18.0173 3.10224 18.7318 4.33984L21.9998 10.0001ZM20.2677 13.0001C20.625 12.3813 20.625 11.6189 20.2677 11.0001L16.9998 5.33984C16.6425 4.72104 15.9822 4.33984 15.2677 4.33984L8.73182 4.33984C8.01729 4.33984 7.35703 4.72104 6.99977 5.33984L3.73182 11.0001C3.37455 11.6189 3.37455 12.3813 3.73182 13.0001L6.99977 18.6604C7.35703 19.2792 8.01728 19.6604 8.73182 19.6604H15.2677C15.9822 19.6604 16.6425 19.2792 16.9998 18.6604L20.2677 13.0001ZM15.7069 8.29305C16.0974 8.68357 16.0974 9.31673 15.7069 9.70726L13.414 12.0002L15.7069 14.293C16.0974 14.6835 16.0974 15.3167 15.7069 15.7072C15.3163 16.0978 14.6832 16.0978 14.2926 15.7072L11.9998 13.4144L9.70688 15.7073C9.31636 16.0978 8.68319 16.0978 8.29267 15.7073C7.90215 15.3167 7.90215 14.6836 8.29267 14.293L10.5856 12.0002L8.29264 9.70723C7.90212 9.31671 7.90212 8.68354 8.29264 8.29302C8.68317 7.90249 9.31633 7.90249 9.70685 8.29302L11.9998 10.5859L14.2927 8.29305C14.6832 7.90252 15.3164 7.90252 15.7069 8.29305Z" fill="currentColor"/>
</svg>
